<?xml version="1.0" standalone="no"?>
<!DOCTYPE svg PUBLIC "-//W3C//DTD SVG 20010904//EN"
 "http://www.w3.org/TR/2001/REC-SVG-20010904/DTD/svg10.dtd">
<svg version="1.0" xmlns="http://www.w3.org/2000/svg"
 width="1276.000000pt" height="267.000000pt" viewBox="0 0 1276.000000 267.000000"
 preserveAspectRatio="xMidYMid meet">

<g transform="translate(0.000000,267.000000) scale(0.100000,-0.100000)"
fill="#fff" stroke="none">
<path d="M992 2490 c-18 -11 -35 -26 -38 -34 -3 -8 -20 -17 -38 -20 -18 -4
-42 -15 -53 -25 -17 -16 -30 -18 -85 -14 -47 4 -72 1 -95 -10 -39 -20 -82 -72
-90 -106 -6 -30 -92 -91 -129 -91 -32 0 -90 -53 -98 -91 -3 -17 0 -44 8 -64
13 -31 13 -35 -7 -53 -13 -12 -50 -24 -92 -32 -128 -21 -190 -65 -152 -108 15
-18 15 -12 132 -972 42 -338 78 -630 82 -648 7 -40 46 -62 148 -85 150 -33
294 -41 710 -41 424 1 589 12 725 50 108 30 94 -18 166 565 35 283 79 645 99
804 23 188 42 301 52 322 16 30 16 33 -1 52 -22 24 -52 36 -135 55 -35 8 -73
23 -85 34 -11 10 -28 22 -37 25 -9 3 -19 21 -23 41 -7 36 -54 86 -82 86 -8 0
-14 7 -14 15 0 30 -41 96 -72 115 -17 10 -46 21 -65 25 -19 3 -42 13 -51 21
-108 91 -128 104 -165 104 -14 0 -31 7 -38 17 -20 23 -89 53 -124 53 -16 -1
-48 -9 -70 -18 -35 -16 -43 -17 -85 -4 -25 8 -63 23 -86 33 -52 24 -71 24
-112 -1z m93 -76 c19 -21 29 -24 57 -19 26 5 38 2 52 -14 25 -27 37 -26 82 4
20 14 48 25 61 25 32 0 80 -26 93 -50 8 -15 21 -20 55 -20 37 0 48 -5 66 -29
12 -16 32 -32 44 -35 12 -3 30 -17 39 -31 12 -19 25 -25 52 -25 61 0 109 -50
102 -109 -3 -24 7 -33 57 -48 26 -7 31 -14 35 -53 5 -42 8 -46 53 -68 52 -24
83 -72 67 -103 -26 -48 -1074 -61 -1505 -19 -60 6 -110 12 -111 13 -1 1 1 22
6 47 6 34 17 52 44 75 41 34 44 45 16 70 -42 38 -15 95 46 95 27 0 41 7 60 29
13 16 36 32 51 36 33 8 43 21 43 58 0 18 11 39 29 58 24 23 38 29 73 29 24 0
53 -7 64 -15 30 -22 52 -18 69 15 16 31 20 33 70 34 19 1 33 8 40 22 30 60 54
67 90 28z m-779 -545 c-21 -16 -35 -20 -62 -14 -20 3 -34 9 -31 12 8 7 66 21
96 22 l24 1 -27 -21z m1833 2 c11 -7 6 -12 -20 -19 -38 -10 -49 -7 -49 14 0
16 46 19 69 5z m-1826 -96 c43 -8 80 -15 82 -15 6 0 10 -28 55 -442 16 -153
44 -403 60 -555 32 -288 33 -303 50 -443 5 -46 10 -97 10 -112 0 -26 -2 -27
-32 -22 -18 3 -56 12 -85 20 -50 14 -52 15 -58 57 -5 41 -169 1369 -181 1475
-7 60 -13 58 99 37z m1833 -22 c-3 -21 -17 -137 -31 -258 -15 -121 -42 -346
-61 -500 -19 -154 -48 -390 -64 -524 -19 -159 -34 -247 -42 -252 -19 -12 -147
-33 -154 -26 -4 4 3 91 14 194 12 104 44 395 72 648 65 599 79 717 86 724 6 6
122 27 162 30 22 1 23 -2 18 -36z m-1400 -17 c1 0 7 -104 14 -230 l11 -228
-22 -16 c-35 -24 -80 -74 -111 -122 -64 -99 -70 -218 -16 -324 24 -47 108
-138 154 -166 l32 -20 7 -148 c4 -81 9 -158 10 -172 2 -14 5 -52 6 -85 l3 -60
-32 1 c-92 1 -138 5 -149 12 -14 9 -20 46 -63 447 -17 154 -33 296 -35 315 -6
49 -32 284 -45 410 -6 58 -13 123 -15 145 -15 125 -25 222 -25 240 0 19 4 20
137 11 76 -4 139 -9 139 -10z m1144 4 c0 -20 -17 -177 -61 -580 -11 -102 -40
-362 -63 -578 -24 -216 -47 -396 -50 -399 -4 -4 -48 -9 -98 -11 l-91 -5 6 109
c4 60 10 164 13 230 l7 122 53 38 c108 78 166 184 166 301 0 63 -5 84 -31 137
-28 58 -122 166 -143 166 -8 0 -4 144 7 290 2 19 3 67 4 106 l1 72 128 9 c70
5 133 11 140 11 6 1 12 -7 12 -18z m-750 -180 l0 -170 -43 0 c-51 0 -182 -32
-226 -54 -16 -9 -32 -13 -34 -8 -3 4 -7 63 -11 132 -3 69 -9 155 -12 192 -4
36 -4 70 -1 75 3 4 77 7 166 5 l161 -3 0 -169z m406 133 c-3 -21 -8 -110 -12
-198 -3 -88 -8 -163 -10 -166 -2 -4 -30 4 -61 16 -32 13 -87 29 -123 35 -36 7
-78 15 -95 19 l-30 7 -3 149 c-1 82 0 155 2 162 4 10 45 13 172 13 l166 0 -6
-37z m-146 -393 c87 -29 145 -63 203 -119 73 -69 101 -130 101 -216 0 -86 -29
-149 -101 -216 -105 -98 -212 -139 -388 -146 -139 -6 -233 10 -329 55 -350
165 -299 533 90 648 122 36 307 34 424 -6z m-418 -741 c36 -9 88 -19 115 -22
l48 -4 3 -185 2 -186 -32 -3 c-18 -2 -74 -3 -124 -1 l-92 3 -6 57 c-3 31 -9
129 -12 216 -7 154 -6 159 12 151 10 -4 49 -16 86 -26z m494 -76 c-3 -60 -9
-156 -12 -215 l-7 -107 -91 -3 c-50 -2 -106 -1 -124 1 l-32 3 2 186 3 185 48
4 c27 3 83 15 125 28 43 12 81 23 86 24 5 0 6 -46 2 -106z"/>
<path d="M1203 2243 c-57 -11 -55 -63 3 -63 20 0 49 -8 66 -17 28 -17 30 -17
43 1 31 42 -40 92 -112 79z"/>
<path d="M815 2186 c-17 -7 -39 -21 -48 -30 -43 -43 4 -87 49 -45 18 17 36 22
76 23 44 1 53 4 56 20 8 42 -69 60 -133 32z"/>
<path d="M1530 2061 c-13 -25 14 -55 43 -47 12 3 36 -2 55 -11 31 -15 35 -15
50 1 33 33 -21 76 -95 76 -32 0 -45 -5 -53 -19z"/>
<path d="M1095 1991 c-12 -5 -27 -16 -34 -25 -12 -15 -12 -19 2 -33 13 -13 23
-15 49 -6 22 6 43 6 62 0 24 -8 32 -6 43 9 11 16 11 21 -5 37 -22 21 -87 31
-117 18z"/>
<path d="M674 1973 c-12 -2 -30 -13 -39 -23 -29 -32 -6 -48 68 -46 55 1 62 3
65 22 5 34 -43 58 -94 47z"/>
<path d="M4445 1979 c-27 -6 -55 -15 -62 -22 -10 -9 -10 -102 -3 -418 6 -257
6 -522 0 -725 -17 -571 -14 -647 25 -676 16 -12 984 -9 1027 2 20 6 39 19 42
28 8 24 0 388 -9 401 -3 6 -36 11 -73 11 -37 0 -178 5 -314 12 l-248 12 -1
186 c-2 677 -11 1145 -20 1156 -25 30 -270 52 -364 33z m301 -75 l21 -6 5
-651 c5 -589 7 -655 22 -684 l17 -33 107 0 c149 0 502 -22 496 -31 -2 -4 1
-61 7 -126 8 -85 8 -126 0 -146 l-11 -27 -495 0 -496 0 8 228 c4 125 7 507 7
849 l-2 622 57 6 c31 3 63 8 71 10 18 5 156 -4 186 -11z"/>
<path d="M8065 1979 c-27 -6 -55 -15 -62 -22 -10 -9 -10 -102 -3 -418 6 -257
6 -522 0 -725 -17 -571 -14 -647 25 -676 16 -12 984 -9 1027 2 20 6 39 19 42
28 8 24 0 388 -9 401 -3 6 -36 11 -73 11 -37 0 -178 5 -314 12 l-248 12 -1
186 c-2 677 -11 1145 -20 1156 -25 30 -270 52 -364 33z m301 -75 l21 -6 5
-651 c5 -589 7 -655 22 -684 l17 -33 107 0 c149 0 502 -22 496 -31 -2 -4 1
-61 7 -126 8 -85 8 -126 0 -146 l-11 -27 -495 0 -496 0 8 228 c4 125 7 507 7
849 l-2 622 57 6 c31 3 63 8 71 10 18 5 156 -4 186 -11z"/>
<path d="M3746 1956 c-3 -12 -10 -83 -16 -157 -12 -162 -3 -1609 11 -1623 5
-6 9 -15 9 -22 0 -8 57 -14 203 -19 171 -6 208 -5 239 8 l37 15 -6 339 c-3
186 0 575 6 864 6 289 8 540 5 558 -4 17 -14 35 -23 40 -9 5 -116 11 -238 14
l-221 6 -6 -23z m433 -62 c2 -2 -2 -272 -8 -601 -7 -392 -8 -681 -2 -838 5
-132 8 -241 6 -243 -8 -9 -194 -14 -285 -8 l-105 8 0 811 c0 447 4 829 9 849
l8 38 187 -7 c102 -3 188 -7 190 -9z"/>
<path d="M7185 1951 c-227 -37 -343 -138 -401 -346 -34 -123 -26 -995 11
-1168 30 -141 126 -263 243 -308 81 -31 275 -38 393 -14 175 35 302 112 354
216 33 64 62 174 76 289 8 58 12 251 13 495 0 356 -1 407 -17 464 -25 87 -79
193 -122 235 -96 96 -374 165 -550 137z m285 -75 c185 -34 297 -133 340 -301
16 -62 15 -723 -1 -889 -12 -125 -38 -235 -69 -296 -66 -129 -227 -206 -457
-217 -237 -12 -362 49 -423 205 -19 48 -24 89 -32 262 -6 113 -11 344 -12 515
-1 341 6 400 60 506 36 72 57 97 111 136 111 79 307 111 483 79z"/>
<path d="M7232 1592 c-87 -31 -132 -88 -171 -215 -34 -113 -42 -215 -31 -402
13 -217 24 -286 59 -360 53 -114 123 -165 226 -165 100 0 212 74 234 155 16
60 14 587 -3 700 -35 229 -77 290 -209 301 -35 3 -69 -2 -105 -14z m197 -81
c47 -33 61 -76 73 -215 13 -159 2 -626 -16 -670 -39 -93 -172 -132 -277 -82
-86 40 -92 58 -115 316 -27 308 -6 476 76 595 58 84 182 111 259 56z"/>
<path d="M9545 1951 c-227 -37 -343 -138 -401 -346 -34 -123 -26 -995 11
-1168 30 -141 126 -263 243 -308 81 -31 275 -38 393 -14 175 35 302 112 354
216 33 64 62 174 76 289 8 58 12 251 13 495 0 356 -1 407 -17 464 -25 87 -79
193 -122 235 -96 96 -374 165 -550 137z m285 -75 c185 -34 297 -133 340 -301
16 -62 15 -723 -1 -889 -12 -125 -38 -235 -69 -296 -66 -129 -227 -206 -457
-217 -237 -12 -362 49 -423 205 -19 48 -24 89 -32 262 -6 113 -11 344 -12 515
-1 341 6 400 60 506 36 72 57 97 111 136 111 79 307 111 483 79z"/>
<path d="M9592 1592 c-87 -31 -132 -88 -171 -215 -34 -113 -42 -215 -31 -402
13 -217 24 -286 59 -360 53 -114 123 -165 226 -165 100 0 212 74 234 155 16
60 14 587 -3 700 -35 229 -77 290 -209 301 -35 3 -69 -2 -105 -14z m197 -81
c47 -33 61 -76 73 -215 13 -159 2 -626 -16 -670 -39 -93 -172 -132 -277 -82
-86 40 -92 58 -115 316 -27 308 -6 476 76 595 58 84 182 111 259 56z"/>
<path d="M10765 1950 c-144 -16 -227 -53 -301 -132 -97 -104 -132 -243 -141
-568 -9 -331 19 -665 66 -803 90 -260 240 -359 524 -344 328 17 484 118 529
342 17 86 17 492 -1 572 l-14 62 -41 5 c-161 20 -356 27 -414 16 -110 -20
-112 -21 -114 -109 -5 -138 0 -180 22 -217 31 -48 53 -57 122 -50 l59 7 -6
-38 c-18 -102 -64 -145 -159 -151 -59 -4 -65 -2 -99 27 -66 59 -72 91 -71 391
0 291 14 410 59 507 27 60 45 68 131 61 69 -6 88 -24 139 -128 34 -70 43 -81
71 -86 51 -9 282 0 294 12 21 21 24 146 6 227 -56 249 -231 391 -496 402 -52
2 -126 0 -165 -5z m240 -75 c147 -26 296 -119 345 -215 41 -80 50 -260 14
-274 -20 -8 -125 -8 -201 0 l-59 6 -18 49 c-35 100 -114 153 -227 154 -72 0
-104 -21 -141 -95 -39 -77 -49 -167 -50 -460 -1 -290 10 -370 63 -470 35 -65
55 -83 118 -100 148 -40 290 97 266 255 -10 69 -24 78 -119 74 l-81 -4 0 107
0 108 34 11 c43 14 168 16 323 5 l116 -8 9 -76 c12 -121 9 -370 -6 -437 -31
-141 -82 -219 -169 -264 -118 -60 -406 -91 -528 -57 -83 24 -148 71 -194 139
-79 118 -110 282 -117 637 -8 387 16 626 74 733 84 153 302 226 548 182z"/>
<path d="M2845 1939 c-196 -12 -314 -26 -331 -40 -12 -10 -14 -138 -13 -858 0
-788 2 -848 18 -876 l18 -30 200 -3 c116 -1 212 2 227 8 26 9 26 11 26 107 0
118 19 495 25 501 2 2 72 12 155 22 83 9 155 21 160 26 15 16 17 394 2 436
l-13 36 -140 -5 c-191 -8 -215 8 -187 122 l13 50 55 7 c30 4 168 10 305 13
138 4 265 11 283 17 l32 10 0 163 c0 90 -5 186 -11 213 l-10 50 -57 11 c-163
31 -438 38 -757 20z m645 -70 c41 -5 87 -11 103 -15 l27 -6 0 -157 0 -157
-297 -13 c-164 -6 -313 -15 -331 -18 -42 -7 -52 -28 -59 -117 -5 -59 -2 -79
15 -111 39 -77 47 -80 204 -80 l139 0 -7 -170 c-4 -93 -7 -171 -8 -172 0 0
-53 -6 -116 -12 -175 -18 -191 -21 -201 -45 -6 -12 -13 -149 -17 -306 l-7
-285 -99 -9 c-55 -4 -142 -5 -193 -1 l-93 7 6 816 c4 450 8 818 9 819 4 6 280
35 409 43 152 9 395 4 516 -11z"/>
<path d="M6539 1946 c-2 -2 -74 -7 -159 -10 l-155 -6 -23 -32 c-31 -44 -39
-64 -74 -198 -16 -63 -34 -119 -38 -124 -12 -12 -42 52 -79 171 -18 56 -44
119 -58 141 l-26 40 -108 7 c-111 7 -235 0 -259 -15 -12 -7 -15 -146 -18 -840
-4 -768 -3 -834 13 -876 9 -25 27 -51 38 -58 25 -14 304 -16 346 -2 23 8 23
11 17 85 -8 102 -20 777 -13 771 3 -3 19 -41 37 -85 38 -97 79 -159 107 -163
28 -4 62 52 105 173 l33 90 6 -135 c4 -74 7 -255 8 -402 1 -252 2 -269 22
-302 15 -26 28 -36 47 -37 65 -4 316 2 321 6 3 3 5 406 6 896 0 979 5 909 -61
909 -17 0 -33 -2 -35 -4z m45 -408 c4 -188 4 -563 0 -834 l-7 -491 -136 -5
c-75 -3 -139 -3 -143 -1 -5 2 -8 150 -8 328 0 302 -11 535 -29 602 -10 37 -45
43 -63 11 -7 -13 -35 -88 -63 -167 -27 -80 -55 -146 -61 -148 -13 -4 -56 89
-100 217 -25 74 -36 96 -52 98 -18 3 -22 -4 -29 -55 -10 -72 -7 -596 5 -758 4
-66 7 -122 4 -125 -2 -3 -70 -7 -151 -9 l-148 -3 -6 23 c-8 29 -7 787 2 1279
l6 355 80 8 c44 5 117 5 162 2 l81 -7 20 -46 c11 -26 32 -87 47 -137 46 -151
95 -219 132 -183 8 8 36 88 63 177 26 90 53 168 59 174 10 10 88 19 307 35 21
2 21 -1 28 -340z"/>
<path d="M11565 1941 c-49 -8 -65 -17 -65 -39 0 -30 89 -277 150 -417 104
-238 149 -350 155 -391 6 -34 -8 -76 -108 -324 -63 -157 -138 -354 -166 -438
-47 -138 -50 -154 -36 -168 8 -9 12 -20 9 -26 -5 -8 51 -9 190 -5 109 3 200 7
202 10 2 2 31 73 63 158 72 191 130 321 311 709 208 445 362 812 361 858 -2
44 -6 53 -30 60 -35 10 -309 9 -344 -1 -35 -9 -55 -52 -120 -252 -25 -77 -55
-167 -67 -199 -22 -58 -23 -59 -36 -35 -26 47 -93 225 -114 304 -51 193 -46
181 -88 193 -41 13 -199 14 -267 3z m261 -69 c6 -4 23 -50 38 -102 55 -193
169 -450 200 -450 16 0 69 130 131 320 68 209 72 217 107 224 17 3 82 6 145 6
114 0 114 0 108 -22 -4 -13 -36 -97 -72 -187 -62 -158 -98 -238 -365 -816
-100 -217 -220 -500 -261 -618 -6 -15 -20 -17 -105 -17 -55 0 -121 -3 -147 -7
l-48 -6 7 29 c12 49 130 358 221 578 108 263 112 216 -55 606 -94 219 -152
370 -164 427 l-7 32 53 4 c103 7 203 7 214 -1z"/>
</g>
</svg>
